<?xml version="1.0" standalone="no"?>
<!DOCTYPE svg PUBLIC "-//W3C//DTD SVG 20010904//EN"
 "http://www.w3.org/TR/2001/REC-SVG-20010904/DTD/svg10.dtd">
<svg version="1.0" xmlns="http://www.w3.org/2000/svg"
 width="460.000000pt" height="460.000000pt" viewBox="0 0 460.000000 460.000000"
 preserveAspectRatio="xMidYMid meet">
<metadata>
Created by potrace 1.11, written by Peter Selinger 2001-2013
</metadata>
<g transform="translate(0.000000,460.000000) scale(0.100000,-0.100000)"
fill="#000000" stroke="none">
<path d="M0 4000 c0 -593 0 -600 20 -600 17 0 20 -7 20 -41 0 -24 4 -38 10
-34 6 3 10 22 10 41 0 19 5 34 10 34 6 0 10 -18 10 -41 0 -24 4 -38 10 -34 6
3 10 21 10 39 0 30 4 34 30 38 l30 5 0 -53 c0 -47 24 -114 41 -114 3 0 12 12
19 28 l14 27 4 -27 c5 -43 22 -33 22 12 0 22 -4 40 -10 40 -5 0 -10 5 -10 10
0 6 -12 22 -27 35 -32 27 -30 32 12 37 l30 3 9 -80 c5 -44 13 -83 18 -86 5 -3
0 -9 -11 -12 -27 -7 -27 -27 -1 -34 17 -4 19 -12 17 -56 -2 -28 -9 -53 -15
-55 -7 -2 -12 -11 -12 -19 0 -13 3 -13 15 -3 12 10 15 9 15 -4 0 -9 -7 -19
-15 -22 -9 -4 -15 -19 -16 -38 0 -26 -2 -28 -9 -11 -5 13 -7 -1 -4 -38 2 -32
6 -62 9 -68 4 -5 2 -16 -3 -25 -6 -10 -6 -31 0 -53 5 -20 10 -41 11 -48 2 -7
6 -15 10 -19 4 -4 4 -18 0 -32 -4 -16 -2 -23 4 -19 6 4 13 -3 17 -16 9 -34 7
-69 -3 -62 -6 3 -6 -6 -1 -24 4 -16 8 -59 9 -96 0 -47 5 -70 17 -82 12 -12 14
-26 10 -54 -3 -21 -2 -40 4 -44 5 -3 10 -11 10 -16 0 -6 -4 -8 -9 -5 -5 4 -7
-3 -4 -13 3 -12 11 -17 19 -14 11 4 14 -2 12 -23 -1 -16 -1 -49 1 -74 2 -37 4
-41 12 -25 8 16 8 14 5 -11 -3 -17 -1 -35 3 -40 5 -5 5 -19 0 -32 -7 -19 -13
-22 -47 -16 -30 5 -50 0 -88 -19 -46 -23 -112 -51 -124 -52 -15 -1 -32 -21
-49 -58 -11 -23 -31 -57 -45 -76 l-26 -35 0 -639 0 -639 48 4 c38 2 47 0 45
-12 -2 -10 10 -21 32 -29 19 -7 35 -17 35 -22 0 -5 10 -14 22 -19 17 -6 18 -9
6 -9 -28 -1 -29 -18 -3 -67 14 -26 25 -53 25 -60 0 -8 5 -14 11 -14 5 0 8 -4
4 -9 -7 -13 15 -25 26 -14 5 5 3 20 -6 35 -7 15 -21 59 -31 98 -9 39 -21 73
-25 76 -5 3 -9 14 -9 25 0 10 -4 19 -9 19 -5 0 -13 9 -16 20 -3 11 -15 20 -26
20 -22 0 -24 -10 -7 -29 11 -11 10 -13 -2 -9 -8 3 -17 13 -18 23 -4 20 16 37
35 30 7 -2 13 2 13 10 0 19 15 19 45 -1 21 -14 27 -14 57 -1 51 23 131 45 272
73 70 13 144 44 108 44 -7 0 -11 4 -8 9 4 6 19 6 39 0 41 -11 92 2 124 33 15
14 22 17 18 7 -3 -8 -19 -23 -35 -33 -17 -9 -30 -22 -30 -27 0 -6 -6 -7 -12
-3 -7 4 -5 -1 4 -11 16 -17 18 -16 59 18 23 20 57 40 76 43 38 7 44 31 11 43
l-22 8 22 5 c30 8 36 -29 18 -119 -7 -40 -11 -74 -9 -77 3 -3 2 -22 -2 -43 -6
-33 -8 -35 -15 -17 -5 12 -4 39 1 60 12 55 11 74 -5 74 -23 0 -36 -165 -21
-270 2 -14 4 -33 4 -44 1 -13 7 -17 20 -13 21 5 31 -24 31 -92 0 -21 7 -60 14
-87 8 -27 17 -67 19 -89 9 -83 -60 -75 672 -75 l653 0 5 33 c10 62 35 158 42
165 4 4 5 -9 1 -28 -17 -80 -19 -110 -7 -110 15 0 28 36 42 118 25 149 31 290
14 294 -6 2 -13 -32 -18 -77 -4 -44 -12 -102 -17 -130 -7 -40 -7 -33 -3 35 3
47 7 123 8 170 3 106 2 100 24 100 10 0 22 8 26 18 7 16 8 15 15 -3 7 -17 9
-17 9 -2 1 18 21 24 21 6 0 -6 9 -24 21 -40 l20 -29 -21 0 c-20 0 -20 -1 -5
-16 8 -9 24 -32 35 -53 10 -20 35 -49 54 -64 34 -27 36 -27 36 -7 0 12 -11 31
-24 43 -18 17 -22 27 -15 38 13 21 11 29 -6 23 -8 -3 -21 1 -30 9 -21 21 -19
30 5 22 18 -6 18 -4 9 24 -6 17 -15 28 -21 25 -6 -4 -8 2 -6 12 2 11 18 24 38
31 19 7 27 12 18 12 -10 1 -18 6 -18 11 0 6 8 10 18 10 13 0 14 2 3 9 -18 12
-4 16 49 16 31 0 44 -4 43 -12 -2 -7 2 -13 7 -13 6 0 10 4 10 10 0 21 112 -35
160 -80 18 -17 36 -30 41 -30 15 0 59 -43 59 -58 0 -8 6 -12 13 -9 7 2 30 1
52 -3 27 -5 32 -8 15 -9 -25 -1 -65 -21 -43 -21 6 0 12 -8 12 -17 3 -63 0 -60
81 -62 52 -2 82 -7 99 -19 82 -59 101 -63 152 -36 32 16 34 40 3 37 -10 -1
-27 3 -39 9 -18 10 -19 10 -6 -5 12 -15 11 -17 -8 -17 -14 0 -20 4 -15 12 5 8
2 9 -11 4 -16 -6 -16 -4 -4 10 12 15 12 17 -1 12 -8 -3 -23 2 -33 10 -10 9
-34 15 -58 14 -22 -1 -49 3 -60 8 -13 7 -19 7 -19 0 0 -5 -4 -10 -10 -10 -5 0
-10 9 -10 20 0 15 -7 20 -25 20 -31 0 -33 17 -2 18 40 2 62 7 68 15 12 17 134
12 179 -7 73 -30 95 -44 92 -60 -3 -16 34 -42 40 -27 2 5 8 3 15 -4 9 -10 7
-21 -7 -48 -14 -26 -16 -38 -8 -43 6 -4 8 -3 5 3 -4 5 7 23 23 38 24 23 30 25
30 12 0 -16 11 -21 38 -18 6 1 12 -3 12 -9 0 -8 -15 -9 -45 -4 -36 5 -45 3
-45 -9 0 -31 30 -41 133 -44 55 -1 105 -7 111 -13 5 -5 21 -10 36 -10 31 0 58
-16 46 -27 -5 -4 -11 -3 -13 4 -2 7 -11 9 -19 6 -20 -7 -18 -52 4 -60 9 -4 28
-15 41 -25 13 -10 39 -18 57 -18 18 0 36 -5 39 -10 3 -6 15 -10 25 -10 10 0
27 -12 37 -26 11 -15 31 -28 47 -29 16 -2 33 -8 39 -14 7 -7 114 -11 324 -11
l313 0 0 2300 0 2300 -2300 0 -2300 0 0 -600z m77 258 c-3 -8 -6 -5 -6 6 -1
11 2 17 5 13 3 -3 4 -12 1 -19z m250 -1060 c-3 -8 -6 -5 -6 6 -1 11 2 17 5 13
3 -3 4 -12 1 -19z m1576 -855 c2 -5 7 -25 11 -46 l7 -38 -48 6 c-73 10 -79 13
-57 30 25 19 34 19 34 0 0 -20 29 -19 36 0 4 8 1 21 -5 29 -6 7 -8 16 -4 19 9
9 21 9 26 0z m-1026 -1875 c-3 -7 -5 -2 -5 12 0 14 2 19 5 13 2 -7 2 -19 0
-25z m0 -50 c-3 -8 -6 -5 -6 6 -1 11 2 17 5 13 3 -3 4 -12 1 -19z m2796 -185
c-7 -2 -19 -2 -25 0 -7 3 -2 5 12 5 14 0 19 -2 13 -5z m70 -50 c-18 -7 -16
-23 1 -23 8 0 17 -4 21 -10 3 -5 -7 -5 -25 1 -16 6 -30 15 -30 19 0 9 18 18
35 18 6 0 4 -2 -2 -5z"/>
<path d="M128 3323 c7 -3 16 -2 19 1 4 3 -2 6 -13 5 -11 0 -14 -3 -6 -6z"/>
<path d="M103 3275 c0 -22 2 -30 4 -17 2 12 2 30 0 40 -3 9 -5 -1 -4 -23z"/>
<path d="M670 635 c-7 -8 -19 -15 -27 -15 -10 0 -13 -6 -9 -16 3 -9 6 -27 6
-40 0 -34 17 -30 33 9 8 17 21 38 30 46 9 7 14 17 11 22 -8 14 -30 11 -44 -6z"/>
<path d="M2525 590 c3 -5 8 -10 11 -10 2 0 4 5 4 10 0 6 -5 10 -11 10 -5 0 -7
-4 -4 -10z"/>
<path d="M3148 463 c7 -3 16 -2 19 1 4 3 -2 6 -13 5 -11 0 -14 -3 -6 -6z"/>
<path d="M3188 443 c7 -3 16 -2 19 1 4 3 -2 6 -13 5 -11 0 -14 -3 -6 -6z"/>
<path d="M67 394 c-11 -11 -8 -52 3 -59 6 -3 10 -15 10 -26 0 -10 4 -19 8 -19
5 0 19 -44 31 -97 35 -147 47 -187 60 -191 13 -4 15 47 2 80 -5 13 -15 55 -21
93 -21 116 -73 239 -93 219z"/>
<path d="M2560 264 c0 -19 69 -134 81 -134 22 0 17 26 -16 79 -38 61 -65 84
-65 55z"/>
<path d="M2525 261 c-8 -13 43 -225 60 -247 23 -32 29 -7 12 53 -9 32 -19 79
-23 106 -3 26 -10 50 -15 53 -5 3 -9 14 -9 25 0 20 -15 26 -25 10z"/>
<path d="M3528 213 c7 -3 16 -2 19 1 4 3 -2 6 -13 5 -11 0 -14 -3 -6 -6z"/>
</g>
</svg>
